<?xml version="1.0" standalone="no"?>
 <!DOCTYPE svg PUBLIC "-//W3C//DTD SVG 1.1//EN" 
 "http://www.w3.org/Graphics/SVG/1.1/DTD/svg11.dtd"> 
<svg
  xmlns:svg="http://www.w3.org/2000/svg"
  xmlns="http://www.w3.org/2000/svg"
  xmlns:xlink="http://www.w3.org/1999/xlink"
  version="1.1"
  width="9.171940cm" height="7.914640cm" viewBox="0 0 91719400 79146400">
<title>SVG Picture created as plaid-top-brd.svg date 2022/06/29 11:46:45 </title>
  <desc>Picture generated by PCBNEW </desc>
<g style="fill:#000000; fill-opacity:1.000000;stroke:#000000; stroke-opacity:1.000000;
stroke-linecap:round; stroke-linejoin:round;"
 transform="translate(0 0) scale(1 1)">
</g>
<g style="fill:#000000; fill-opacity:0.0; 
stroke:#000000; stroke-width:0.000000; stroke-opacity:1; 
stroke-linecap:round; stroke-linejoin:round;">
</g>
<g style="fill:#000000; fill-opacity:0.0; 
stroke:#000000; stroke-width:200000.000000; stroke-opacity:1; 
stroke-linecap:round; stroke-linejoin:round;">
<path d="M74072500 74129981
L74072500 62129989
" />
<path d="M55072500 74129981
L55072500 62129989
" />
<path d="M36072500 74129981
L36072500 62129989
" />
<path d="M17072500 74129981
L17072500 62129989
" />
<path d="M74072500 55129981
L74072500 43129989
" />
<path d="M55072500 55129981
L55072500 43129989
" />
<path d="M36072500 55129981
L36072500 43129989
" />
<path d="M17072500 55129981
L17072500 43129989
" />
<path d="M74072500 36129981
L74072500 24129989
" />
<path d="M55072500 36129981
L55072500 24129989
" />
<path d="M36072500 36129981
L36072500 24129989
" />
<path d="M17072500 36129981
L17072500 24129989
" />
<path d="M74072500 17129981
L74072500 5129989
" />
<path d="M55072500 17129981
L55072500 5129989
" />
<path d="M36072500 17129981
L36072500 5129989
" />
<path d="M75072500 61129996
L87072500 61129996
" />
<path d="M56072500 61129996
L68072500 61129996
" />
<path d="M37072500 61129996
L49072500 61129996
" />
<path d="M18072500 61129996
L30072500 61129996
" />
<path d="M75072500 42129996
L87072500 42129996
" />
<path d="M56072500 42129996
L68072500 42129996
" />
<path d="M37072500 42129996
L49072500 42129996
" />
<path d="M18072500 42129996
L30072500 42129996
" />
<path d="M75072500 23129996
L87072500 23129996
" />
<path d="M56072500 23129996
L68072500 23129996
" />
<path d="M37072500 23129996
L49072500 23129996
" />
<path d="M18072500 23129996
L30072500 23129996
" />
<path d="M75072500 4129996
L87072500 4129996
" />
<path d="M56072500 4129996
L68072500 4129996
" />
<path d="M37072500 4129996
L49072500 4129996
" />
<path d="M75072500.000000,61129996.000000 C74520218.000000,61129996.000000 74072504.000000,61577707.000000 74072499.000000,62129989.000000" />
<path d="M56072500.000000,61129996.000000 C55520218.000000,61129996.000000 55072504.000000,61577707.000000 55072499.000000,62129989.000000" />
<path d="M37072500.000000,61129996.000000 C36520218.000000,61129996.000000 36072504.000000,61577707.000000 36072499.000000,62129989.000000" />
<path d="M18072500.000000,61129996.000000 C17520218.000000,61129996.000000 17072504.000000,61577707.000000 17072499.000000,62129989.000000" />
<path d="M75072500.000000,42129996.000000 C74520218.000000,42129996.000000 74072504.000000,42577707.000000 74072499.000000,43129989.000000" />
<path d="M56072500.000000,42129996.000000 C55520218.000000,42129996.000000 55072504.000000,42577707.000000 55072499.000000,43129989.000000" />
<path d="M37072500.000000,42129996.000000 C36520218.000000,42129996.000000 36072504.000000,42577707.000000 36072499.000000,43129989.000000" />
<path d="M18072500.000000,42129996.000000 C17520218.000000,42129996.000000 17072504.000000,42577707.000000 17072499.000000,43129989.000000" />
<path d="M75072500.000000,23129996.000000 C74520218.000000,23129996.000000 74072504.000000,23577707.000000 74072499.000000,24129989.000000" />
<path d="M56072500.000000,23129996.000000 C55520218.000000,23129996.000000 55072504.000000,23577707.000000 55072499.000000,24129989.000000" />
<path d="M37072500.000000,23129996.000000 C36520218.000000,23129996.000000 36072504.000000,23577707.000000 36072499.000000,24129989.000000" />
<path d="M18072500.000000,23129996.000000 C17520218.000000,23129996.000000 17072504.000000,23577707.000000 17072499.000000,24129989.000000" />
<path d="M75072500.000000,4129996.000000 C74520218.000000,4129996.000000 74072504.000000,4577707.000000 74072499.000000,5129989.000000" />
<path d="M56072500.000000,4129996.000000 C55520218.000000,4129996.000000 55072504.000000,4577707.000000 55072499.000000,5129989.000000" />
<path d="M37072500.000000,4129996.000000 C36520218.000000,4129996.000000 36072504.000000,4577707.000000 36072499.000000,5129989.000000" />
<path d="M88072501 62129989
L88072501 74129981
" />
<path d="M69072501 62129989
L69072501 74129981
" />
<path d="M50072501 62129989
L50072501 74129981
" />
<path d="M31072501 62129989
L31072501 74129981
" />
<path d="M88072501 43129989
L88072501 55129981
" />
<path d="M69072501 43129989
L69072501 55129981
" />
<path d="M50072501 43129989
L50072501 55129981
" />
<path d="M31072501 43129989
L31072501 55129981
" />
<path d="M88072501 24129989
L88072501 36129981
" />
<path d="M69072501 24129989
L69072501 36129981
" />
<path d="M50072501 24129989
L50072501 36129981
" />
<path d="M31072501 24129989
L31072501 36129981
" />
<path d="M88072501 5129989
L88072501 17129981
" />
<path d="M69072501 5129989
L69072501 17129981
" />
<path d="M50072501 5129989
L50072501 17129981
" />
<path d="M88072501.000000,62129989.000000 C88072497.000000,61577707.000000 87624782.000000,61129996.000000 87072500.000000,61129996.000000" />
<path d="M69072501.000000,62129989.000000 C69072497.000000,61577707.000000 68624782.000000,61129996.000000 68072500.000000,61129996.000000" />
<path d="M50072501.000000,62129989.000000 C50072497.000000,61577707.000000 49624782.000000,61129996.000000 49072500.000000,61129996.000000" />
<path d="M31072501.000000,62129989.000000 C31072497.000000,61577707.000000 30624782.000000,61129996.000000 30072500.000000,61129996.000000" />
<path d="M88072501.000000,43129989.000000 C88072497.000000,42577707.000000 87624782.000000,42129996.000000 87072500.000000,42129996.000000" />
<path d="M69072501.000000,43129989.000000 C69072497.000000,42577707.000000 68624782.000000,42129996.000000 68072500.000000,42129996.000000" />
<path d="M50072501.000000,43129989.000000 C50072497.000000,42577707.000000 49624782.000000,42129996.000000 49072500.000000,42129996.000000" />
<path d="M31072501.000000,43129989.000000 C31072497.000000,42577707.000000 30624782.000000,42129996.000000 30072500.000000,42129996.000000" />
<path d="M88072501.000000,24129989.000000 C88072497.000000,23577707.000000 87624782.000000,23129996.000000 87072500.000000,23129996.000000" />
<path d="M69072501.000000,24129989.000000 C69072497.000000,23577707.000000 68624782.000000,23129996.000000 68072500.000000,23129996.000000" />
<path d="M50072501.000000,24129989.000000 C50072497.000000,23577707.000000 49624782.000000,23129996.000000 49072500.000000,23129996.000000" />
<path d="M31072501.000000,24129989.000000 C31072497.000000,23577707.000000 30624782.000000,23129996.000000 30072500.000000,23129996.000000" />
<path d="M88072501.000000,5129989.000000 C88072497.000000,4577707.000000 87624782.000000,4129996.000000 87072500.000000,4129996.000000" />
<path d="M69072501.000000,5129989.000000 C69072497.000000,4577707.000000 68624782.000000,4129996.000000 68072500.000000,4129996.000000" />
<path d="M50072501.000000,5129989.000000 C50072497.000000,4577707.000000 49624782.000000,4129996.000000 49072500.000000,4129996.000000" />
<path d="M87072500 75130000
L75072500 75130000
" />
<path d="M68072500 75130000
L56072500 75130000
" />
<path d="M49072500 75130000
L37072500 75130000
" />
<path d="M30072500 75130000
L18072500 75130000
" />
<path d="M87072500 56130000
L75072500 56130000
" />
<path d="M68072500 56130000
L56072500 56130000
" />
<path d="M49072500 56130000
L37072500 56130000
" />
<path d="M30072500 56130000
L18072500 56130000
" />
<path d="M87072500 37130000
L75072500 37130000
" />
<path d="M68072500 37130000
L56072500 37130000
" />
<path d="M49072500 37130000
L37072500 37130000
" />
<path d="M30072500 37130000
L18072500 37130000
" />
<path d="M87072500 18130000
L75072500 18130000
" />
<path d="M68072500 18130000
L56072500 18130000
" />
<path d="M49072500 18130000
L37072500 18130000
" />
<path d="M87779614.000000,74837100.000000 C87967151.000000,74649559.000000 88072506.000000,74395201.000000 88072501.000000,74129981.000000" />
<path d="M68779614.000000,74837100.000000 C68967151.000000,74649559.000000 69072506.000000,74395201.000000 69072501.000000,74129981.000000" />
<path d="M49779614.000000,74837100.000000 C49967151.000000,74649559.000000 50072506.000000,74395201.000000 50072501.000000,74129981.000000" />
<path d="M30779614.000000,74837100.000000 C30967151.000000,74649559.000000 31072506.000000,74395201.000000 31072501.000000,74129981.000000" />
<path d="M87779614.000000,55837100.000000 C87967151.000000,55649559.000000 88072506.000000,55395201.000000 88072501.000000,55129981.000000" />
<path d="M68779614.000000,55837100.000000 C68967151.000000,55649559.000000 69072506.000000,55395201.000000 69072501.000000,55129981.000000" />
<path d="M49779614.000000,55837100.000000 C49967151.000000,55649559.000000 50072506.000000,55395201.000000 50072501.000000,55129981.000000" />
<path d="M30779614.000000,55837100.000000 C30967151.000000,55649559.000000 31072506.000000,55395201.000000 31072501.000000,55129981.000000" />
<path d="M87779614.000000,36837100.000000 C87967151.000000,36649559.000000 88072506.000000,36395201.000000 88072501.000000,36129981.000000" />
<path d="M68779614.000000,36837100.000000 C68967151.000000,36649559.000000 69072506.000000,36395201.000000 69072501.000000,36129981.000000" />
<path d="M49779614.000000,36837100.000000 C49967151.000000,36649559.000000 50072506.000000,36395201.000000 50072501.000000,36129981.000000" />
<path d="M30779614.000000,36837100.000000 C30967151.000000,36649559.000000 31072506.000000,36395201.000000 31072501.000000,36129981.000000" />
<path d="M87779614.000000,17837100.000000 C87967151.000000,17649559.000000 88072506.000000,17395201.000000 88072501.000000,17129981.000000" />
<path d="M68779614.000000,17837100.000000 C68967151.000000,17649559.000000 69072506.000000,17395201.000000 69072501.000000,17129981.000000" />
<path d="M49779614.000000,17837100.000000 C49967151.000000,17649559.000000 50072506.000000,17395201.000000 50072501.000000,17129981.000000" />
<path d="M87072500.000000,75130000.000000 C87337720.000000,75130000.000000 87592077.000000,75024641.000000 87779614.000000,74837100.000000" />
<path d="M68072500.000000,75130000.000000 C68337720.000000,75130000.000000 68592077.000000,75024641.000000 68779614.000000,74837100.000000" />
<path d="M49072500.000000,75130000.000000 C49337720.000000,75130000.000000 49592077.000000,75024641.000000 49779614.000000,74837100.000000" />
<path d="M30072500.000000,75130000.000000 C30337720.000000,75130000.000000 30592077.000000,75024641.000000 30779614.000000,74837100.000000" />
<path d="M87072500.000000,56130000.000000 C87337720.000000,56130000.000000 87592077.000000,56024641.000000 87779614.000000,55837100.000000" />
<path d="M68072500.000000,56130000.000000 C68337720.000000,56130000.000000 68592077.000000,56024641.000000 68779614.000000,55837100.000000" />
<path d="M49072500.000000,56130000.000000 C49337720.000000,56130000.000000 49592077.000000,56024641.000000 49779614.000000,55837100.000000" />
<path d="M30072500.000000,56130000.000000 C30337720.000000,56130000.000000 30592077.000000,56024641.000000 30779614.000000,55837100.000000" />
<path d="M87072500.000000,37130000.000000 C87337720.000000,37130000.000000 87592077.000000,37024641.000000 87779614.000000,36837100.000000" />
<path d="M68072500.000000,37130000.000000 C68337720.000000,37130000.000000 68592077.000000,37024641.000000 68779614.000000,36837100.000000" />
<path d="M49072500.000000,37130000.000000 C49337720.000000,37130000.000000 49592077.000000,37024641.000000 49779614.000000,36837100.000000" />
<path d="M30072500.000000,37130000.000000 C30337720.000000,37130000.000000 30592077.000000,37024641.000000 30779614.000000,36837100.000000" />
<path d="M87072500.000000,18130000.000000 C87337720.000000,18130000.000000 87592077.000000,18024641.000000 87779614.000000,17837100.000000" />
<path d="M68072500.000000,18130000.000000 C68337720.000000,18130000.000000 68592077.000000,18024641.000000 68779614.000000,17837100.000000" />
<path d="M49072500.000000,18130000.000000 C49337720.000000,18130000.000000 49592077.000000,18024641.000000 49779614.000000,17837100.000000" />
<path d="M74365386.000000,74837100.000000 C74552923.000000,75024641.000000 74807280.000000,75130000.000000 75072500.000000,75130000.000000" />
<path d="M55365386.000000,74837100.000000 C55552923.000000,75024641.000000 55807280.000000,75130000.000000 56072500.000000,75130000.000000" />
<path d="M36365386.000000,74837100.000000 C36552923.000000,75024641.000000 36807280.000000,75130000.000000 37072500.000000,75130000.000000" />
<path d="M17365386.000000,74837100.000000 C17552923.000000,75024641.000000 17807280.000000,75130000.000000 18072500.000000,75130000.000000" />
<path d="M74365386.000000,55837100.000000 C74552923.000000,56024641.000000 74807280.000000,56130000.000000 75072500.000000,56130000.000000" />
<path d="M55365386.000000,55837100.000000 C55552923.000000,56024641.000000 55807280.000000,56130000.000000 56072500.000000,56130000.000000" />
<path d="M36365386.000000,55837100.000000 C36552923.000000,56024641.000000 36807280.000000,56130000.000000 37072500.000000,56130000.000000" />
<path d="M17365386.000000,55837100.000000 C17552923.000000,56024641.000000 17807280.000000,56130000.000000 18072500.000000,56130000.000000" />
<path d="M74365386.000000,36837100.000000 C74552923.000000,37024641.000000 74807280.000000,37130000.000000 75072500.000000,37130000.000000" />
<path d="M55365386.000000,36837100.000000 C55552923.000000,37024641.000000 55807280.000000,37130000.000000 56072500.000000,37130000.000000" />
<path d="M36365386.000000,36837100.000000 C36552923.000000,37024641.000000 36807280.000000,37130000.000000 37072500.000000,37130000.000000" />
<path d="M17365386.000000,36837100.000000 C17552923.000000,37024641.000000 17807280.000000,37130000.000000 18072500.000000,37130000.000000" />
<path d="M74365386.000000,17837100.000000 C74552923.000000,18024641.000000 74807280.000000,18130000.000000 75072500.000000,18130000.000000" />
<path d="M55365386.000000,17837100.000000 C55552923.000000,18024641.000000 55807280.000000,18130000.000000 56072500.000000,18130000.000000" />
<path d="M36365386.000000,17837100.000000 C36552923.000000,18024641.000000 36807280.000000,18130000.000000 37072500.000000,18130000.000000" />
<path d="M74072500.000000,74129981.000000 C74072494.000000,74395201.000000 74177849.000000,74649559.000000 74365386.000000,74837100.000000" />
<path d="M55072500.000000,74129981.000000 C55072494.000000,74395201.000000 55177849.000000,74649559.000000 55365386.000000,74837100.000000" />
<path d="M36072500.000000,74129981.000000 C36072494.000000,74395201.000000 36177849.000000,74649559.000000 36365386.000000,74837100.000000" />
<path d="M17072500.000000,74129981.000000 C17072494.000000,74395201.000000 17177849.000000,74649559.000000 17365386.000000,74837100.000000" />
<path d="M74072500.000000,55129981.000000 C74072494.000000,55395201.000000 74177849.000000,55649559.000000 74365386.000000,55837100.000000" />
<path d="M55072500.000000,55129981.000000 C55072494.000000,55395201.000000 55177849.000000,55649559.000000 55365386.000000,55837100.000000" />
<path d="M36072500.000000,55129981.000000 C36072494.000000,55395201.000000 36177849.000000,55649559.000000 36365386.000000,55837100.000000" />
<path d="M17072500.000000,55129981.000000 C17072494.000000,55395201.000000 17177849.000000,55649559.000000 17365386.000000,55837100.000000" />
<path d="M74072500.000000,36129981.000000 C74072494.000000,36395201.000000 74177849.000000,36649559.000000 74365386.000000,36837100.000000" />
<path d="M55072500.000000,36129981.000000 C55072494.000000,36395201.000000 55177849.000000,36649559.000000 55365386.000000,36837100.000000" />
<path d="M36072500.000000,36129981.000000 C36072494.000000,36395201.000000 36177849.000000,36649559.000000 36365386.000000,36837100.000000" />
<path d="M17072500.000000,36129981.000000 C17072494.000000,36395201.000000 17177849.000000,36649559.000000 17365386.000000,36837100.000000" />
<path d="M74072500.000000,17129981.000000 C74072494.000000,17395201.000000 74177849.000000,17649559.000000 74365386.000000,17837100.000000" />
<path d="M55072500.000000,17129981.000000 C55072494.000000,17395201.000000 55177849.000000,17649559.000000 55365386.000000,17837100.000000" />
<path d="M36072500.000000,17129981.000000 C36072494.000000,17395201.000000 36177849.000000,17649559.000000 36365386.000000,17837100.000000" />
<path d="M17072500 17129981
L17072500 5129989
" />
<path d="M18072500 4129996
L30072500 4129996
" />
<path d="M18072500.000000,4129996.000000 C17520218.000000,4129996.000000 17072504.000000,4577707.000000 17072499.000000,5129989.000000" />
<path d="M31072501 5129989
L31072501 17129981
" />
<path d="M31072501.000000,5129989.000000 C31072497.000000,4577707.000000 30624782.000000,4129996.000000 30072500.000000,4129996.000000" />
<path d="M30072500 18130000
L18072500 18130000
" />
<path d="M30779614.000000,17837100.000000 C30967151.000000,17649559.000000 31072506.000000,17395201.000000 31072501.000000,17129981.000000" />
<path d="M30072500.000000,18130000.000000 C30337720.000000,18130000.000000 30592077.000000,18024641.000000 30779614.000000,17837100.000000" />
<path d="M17365386.000000,17837100.000000 C17552923.000000,18024641.000000 17807280.000000,18130000.000000 18072500.000000,18130000.000000" />
<path d="M17072500.000000,17129981.000000 C17072494.000000,17395201.000000 17177849.000000,17649559.000000 17365386.000000,17837100.000000" />
</g>
<g style="fill:#000000; fill-opacity:0.0; 
stroke:#000000; stroke-width:150000.000000; stroke-opacity:1; 
stroke-linecap:round; stroke-linejoin:round;">
<path d="M14560000.000000 75130000.000000 A2500000.000000 2500000.000000 0.0 0 0 17060000.000000 77630000.000000" />
<path d="M88080000.000000 77630000.000000 A2500000.000000 2500000.000000 0.0 0 0 90580000.000000 75130000.000000" />
<path d="M90580000.000000 4100000.000000 A2500000.000000 2500000.000000 0.0 0 0 88080000.000000 1600000.000000" />
<path d="M17060000.000000 1600000.000000 A2500000.000000 2500000.000000 0.0 0 0 14560000.000000 4100000.000000" />
<path d="M14560000 75130000
L14560000 4100000
" />
<path d="M88080000 77630000
L17060000 77630000
" />
<path d="M90580000 4100000
L90580000 75130000
" />
<path d="M88080000 1600000
L17060000 1600000
" />
<g >
</g>
<g >
</g>
<g >
</g>
<g >
</g>
<g >
</g>
<g >
</g>
<g >
</g>
</g> 
</svg>
