<?xml version="1.0" encoding="utf-8"?>
<svg version="1.0"
	 id="svg48" xmlns:cc="http://creativecommons.org/ns#" xmlns:dc="http://purl.org/dc/elements/1.1/" xmlns:inkscape="http://www.inkscape.org/namespaces/inkscape" xmlns:rdf="http://www.w3.org/1999/02/22-rdf-syntax-ns#" xmlns:sodipodi="http://sodipodi.sourceforge.net/DTD/sodipodi-0.dtd" xmlns:svg="http://www.w3.org/2000/svg"
	 xmlns="http://www.w3.org/2000/svg" xmlns:xlink="http://www.w3.org/1999/xlink" x="0px" y="0px" viewBox="0 0 255.5 278.2"
	 style="enable-background:new 0 0 255.5 278.2;" xml:space="preserve">
<style type="text/css">
	.st0{fill-opacity:0;stroke:#FF0000;stroke-width:0.2835;stroke-linecap:round;stroke-linejoin:round;stroke-miterlimit:10;}
	.st1{fill-opacity:0;stroke:#FF0000;stroke-width:0.4252;stroke-linecap:round;stroke-linejoin:round;stroke-miterlimit:10;}
</style>
<sodipodi:namedview  bordercolor="#666666" borderopacity="1" gridtolerance="10" guidetolerance="10" id="namedview50" inkscape:current-layer="svg48" inkscape:cx="155.90713" inkscape:cy="211.35383" inkscape:document-units="mm" inkscape:pageopacity="0" inkscape:pageshadow="2" inkscape:window-height="480" inkscape:window-width="640" inkscape:zoom="1.7307195" objecttolerance="10" pagecolor="#ffffff" showgrid="false" units="mm">
	</sodipodi:namedview>
<title  id="title2">SVG Picture created as plaid-bottom-brd.svg date 2020/02/12 17:01:21</title>
<desc  id="desc4">Picture generated by PCBNEW</desc>
<g id="g6">
</g>
<g id="g8">
</g>
<g id="g26">
	<circle id="circle10" class="st0" cx="93.8" cy="116.4" r="3.1"/>
	<circle id="circle12" class="st0" cx="93.8" cy="224.1" r="3.1"/>
	<circle id="circle14" class="st0" cx="201.5" cy="224.1" r="3.1"/>
	<circle id="circle16" class="st0" cx="201.5" cy="116.4" r="3.1"/>
	<circle id="circle18" class="st0" cx="244" cy="51.2" r="3.1"/>
	<circle id="circle20" class="st0" cx="244" cy="11.6" r="3.1"/>
	<circle id="circle22" class="st0" cx="11.6" cy="51.2" r="3.1"/>
	<circle id="circle24" class="st0" cx="11.6" cy="11.6" r="3.1"/>
</g>
<g id="g46">
	<path id="path28" inkscape:connector-curvature="0" class="st1" d="M0.2,270.9c0,3.9,3.2,7.1,7.1,7.1"/>
	<path id="path30" inkscape:connector-curvature="0" class="st1" d="M248.2,278c3.9,0,7.1-3.2,7.1-7.1"/>
	<path id="path32" inkscape:connector-curvature="0" class="st1" d="M255.3,7.3c0-3.9-3.2-7.1-7.1-7.1c0,0,0,0,0,0"/>
	<path id="path34" inkscape:connector-curvature="0" class="st1" d="M7.3,0.2c-3.9,0-7.1,3.2-7.1,7.1c0,0,0,0,0,0"/>
	<path id="path36" inkscape:connector-curvature="0" class="st1" d="M0.2,270.9V7.3"/>
	<path id="path38" inkscape:connector-curvature="0" class="st1" d="M248.2,278H7.3"/>
	<path id="path40" inkscape:connector-curvature="0" class="st1" d="M255.3,7.3v263.6"/>
	<path id="path42" inkscape:connector-curvature="0" class="st1" d="M248.2,0.2H7.3"/>
	<g id="g44">
	</g>
</g>
</svg>
