<?xml version="1.0" encoding="UTF-8" standalone="no"?>
<!-- Created with Inkscape (http://www.inkscape.org/) -->

<svg
   xmlns:dc="http://purl.org/dc/elements/1.1/"
   xmlns:cc="http://creativecommons.org/ns#"
   xmlns:rdf="http://www.w3.org/1999/02/22-rdf-syntax-ns#"
   xmlns:svg="http://www.w3.org/2000/svg"
   xmlns="http://www.w3.org/2000/svg"
   xmlns:sodipodi="http://sodipodi.sourceforge.net/DTD/sodipodi-0.dtd"
   xmlns:inkscape="http://www.inkscape.org/namespaces/inkscape"
   width="210mm"
   height="297mm"
   viewBox="0 0 210 297"
   version="1.1"
   id="svg8"
   inkscape:version="0.92.2 5c3e80d, 2017-08-06"
   sodipodi:docname="plaid-pad-guard-plate1.svg">
  <defs
     id="defs2" />
  <sodipodi:namedview
     id="base"
     pagecolor="#ffffff"
     bordercolor="#666666"
     borderopacity="1.0"
     inkscape:pageopacity="0.0"
     inkscape:pageshadow="2"
     inkscape:zoom="0.87192015"
     inkscape:cx="393.4873"
     inkscape:cy="637.198"
     inkscape:document-units="mm"
     inkscape:current-layer="layer2"
     showgrid="false"
     inkscape:snap-global="false"
     inkscape:measure-start="597.675,847.268"
     inkscape:measure-end="597.532,861.317" />
  <metadata
     id="metadata5">
    <rdf:RDF>
      <cc:Work
         rdf:about="">
        <dc:format>image/svg+xml</dc:format>
        <dc:type
           rdf:resource="http://purl.org/dc/dcmitype/StillImage" />
        <dc:title></dc:title>
      </cc:Work>
    </rdf:RDF>
  </metadata>
  <g
     inkscape:groupmode="layer"
     id="layer2"
     inkscape:label="Layer 2"
     style="display:inline">
    <path
       style="opacity:1;fill:none;fill-opacity:1;stroke:#ff0000;stroke-width:0.05;stroke-miterlimit:4.30000019;stroke-dasharray:none;stroke-opacity:1"
       d="m 74.368656,68.858398 h 85.622694 c 1.14855,0 2.07319,0.924649 2.0732,2.073204 L 162.0647,90.5 H 72.295607 l -1.55e-4,-19.568398 c -1e-5,-1.148555 0.924649,-2.073204 2.073204,-2.073204 z"
       id="rect6966"
       inkscape:connector-curvature="0"
       sodipodi:nodetypes="sssccss" />
    <path
       inkscape:connector-curvature="0"
       id="path6972"
       d="m 77.456106,72.829217 a 1.282965,1.2830388 0 0 1 -1.282965,1.283039 1.282965,1.2830388 0 0 1 -1.282964,-1.283039 1.282965,1.2830388 0 0 1 1.282964,-1.28304 1.282965,1.2830388 0 0 1 1.282965,1.28304 z"
       style="opacity:1;fill:none;fill-opacity:1;stroke:#ff0000;stroke-width:0.05;stroke-miterlimit:4.30000019;stroke-dasharray:none;stroke-opacity:1" />
    <path
       style="opacity:1;fill:none;fill-opacity:1;stroke:#ff0000;stroke-width:0.05;stroke-miterlimit:4.30000019;stroke-dasharray:none;stroke-opacity:1"
       d="m 77.456106,86.829217 a 1.282965,1.2830388 0 0 1 -1.282965,1.283039 1.282965,1.2830388 0 0 1 -1.282964,-1.283039 1.282965,1.2830388 0 0 1 1.282964,-1.28304 1.282965,1.2830388 0 0 1 1.282965,1.28304 z"
       id="path6980"
       inkscape:connector-curvature="0" />
    <path
       style="opacity:1;fill:none;fill-opacity:1;stroke:#ff0000;stroke-width:0.05;stroke-miterlimit:4.30000019;stroke-dasharray:none;stroke-opacity:1"
       d="m 159.45367,72.829217 a 1.282965,1.2830388 0 0 1 -1.28296,1.283039 1.282965,1.2830388 0 0 1 -1.28297,-1.283039 1.282965,1.2830388 0 0 1 1.28297,-1.28304 1.282965,1.2830388 0 0 1 1.28296,1.28304 z"
       id="path6986"
       inkscape:connector-curvature="0" />
    <path
       inkscape:connector-curvature="0"
       id="path6992"
       d="m 159.45367,86.829217 a 1.282965,1.2830388 0 0 1 -1.28296,1.283039 1.282965,1.2830388 0 0 1 -1.28297,-1.283039 1.282965,1.2830388 0 0 1 1.28297,-1.28304 1.282965,1.2830388 0 0 1 1.28296,1.28304 z"
       style="opacity:1;fill:none;fill-opacity:1;stroke:#ff0000;stroke-width:0.05;stroke-miterlimit:4.30000019;stroke-dasharray:none;stroke-opacity:1" />
  </g>
</svg>
